<svg xmlns="http://www.w3.org/2000/svg" width="550" height="446" fill="none" viewBox="0 0 550 446">
  <path fill="#253744" d="M457.031 438.578c0 3.622-3.347 6.554-7.475 6.552l-349.461-.232c-4.127-.005-7.47-2.942-7.47-6.564l.01-11.601c0-3.622 3.346-6.556 7.475-6.552l349.461.232c4.126.003 7.469 2.942 7.469 6.562l-.009 11.603z"/>
  <path fill="#1A374D" d="M437.948 95.007H112.052v77.918h325.896V95.007z"/>
  <path fill="#E2E5E7" d="M437.964 104.733l.007-9.618-325.896-.216-.023 41.153c31.8-11.421 92.253-28.029 179.339-30.316 81.32-2.137 124.854-1.688 146.573-1.003z" opacity=".09"/>
  <path fill="#2D404E" d="M431.79 171.878c-.002 4.105 2.871 7.437 6.417 7.44 3.545.002 6.421-3.326 6.424-7.433l.042-74.357c.002-4.105-2.871-7.435-6.417-7.437-3.545-.003-6.421 3.323-6.424 7.431l-.042 74.356z"/>
  <path fill="#586A73" d="M431.79 171.878l.042-74.357c.002-4.107 2.879-7.433 6.424-7.431 0 0-4.572 1.734-4.577 7.591-.002 5.861-.039 74.197-.039 74.197h-1.85z"/>
  <path fill="#253744" d="M444.631 171.885l.042-74.357c.002-4.105-2.871-7.435-6.417-7.437 0 0 5.036 2.953 5.034 7.598l-.042 74.197h1.383v-.001z"/>
  <path fill="#2D404E" d="M118.164 171.669c-.002 4.105-2.878 7.433-6.423 7.432-3.547-.002-6.419-3.333-6.417-7.44l.042-74.357c.002-4.105 2.879-7.432 6.423-7.431 3.547.002 6.419 3.332 6.417 7.44l-.042 74.356z"/>
  <path fill="#586A73" d="M118.164 171.67l.042-74.357c.002-4.108-2.87-7.438-6.417-7.44 0 0 4.572 1.741 4.568 7.599-.002 5.86-.04 74.196-.04 74.196l1.847.002z"/>
  <path fill="#253744" d="M105.325 171.66l.042-74.357c.002-4.105 2.879-7.432 6.424-7.431 0 0-5.039 2.946-5.041 7.594l-.042 74.196-1.383-.002z"/>
  <path fill="#1A374D" d="M274.85 402.911L4.907 395.506l-.013 23.879c6.892 9.744 48.566 6.631 48.566 6.631l221.377.147 221.378.147s41.668 3.169 48.572-6.566l.013-23.879-269.95 7.046z"/>
  <path fill="#253744" d="M4.907 395.506l-.013 23.879c2.34 3.308 8.692 5.131 16.057 6.102v-29.542l-16.044-.439z"/>
  <path fill="#253744" d="M4.894 397.524c1.786 3.311 13.582 7.9 20.784 7.9 7.202 0 71.401.92 71.401.92l2.196-3.054-94.38-5.766zM544.775 397.524c-1.785 3.311-13.583 7.9-20.785 7.9-7.203 0-71.4.92-71.4.92l-2.195-3.054 94.38-5.766z"/>
  <path fill="#253744" d="M544.763 395.506l.012 23.879c-2.34 3.308-8.692 5.131-16.059 6.102v-29.542l16.047-.439z"/>
  <path fill="#fff" d="M549.691 393.04l.099-177.83s-.218 5.067-8.24 6.489c-15.329 2.714-50.008 2.27-50.008 2.27l-216.593-.145-216.594-.142s-34.676.395-50.001-2.337c-8.024-1.433-8.234-6.5-8.234-6.5l-.099 177.83s-1.729 6.911 26.434 8.815c28.162 1.904 248.393 3.936 248.393 3.936s220.235-1.737 248.399-3.605c28.165-1.867 26.444-8.781 26.444-8.781z"/>
  <path fill="#C6CBCB" d="M544.43 208.922l-538.275-.359C2.132 210.759.12 214.844.12 214.844s.21 5.067 8.234 6.5c15.325 2.732 50.001 2.336 50.001 2.336l216.594.143 216.593.145s34.679.444 50.008-2.271c8.022-1.421 8.24-6.488 8.24-6.488s-2.198-4.398-5.359-6.287z"/>
  <path fill="#2D404E" d="M524.521 177.177c-4.595-5.032-13.214-7.236-27.007-8.188-13.796-.952-41.959-1.913-41.959-1.913l-180.572-.12-180.574-.123s-28.165.925-41.959 1.859c-13.795.933-22.418 3.125-27.02 8.15-4.598 5.024-20.322 22.504-20.322 22.504l-.006 13.407s.38 5.025 13.024 6.081c12.645 1.057 47.13 2.127 47.13 2.127l209.696.141 209.696.14s34.488-1.026 47.133-2.066c12.645-1.04 13.031-6.064 13.031-6.064l.006-13.406s-15.7-17.501-20.297-22.529z"/>
  <path fill="#1A374D" d="M544.817 199.707l-.006 13.406s-.425 6.521-13.068 7.561c-12.647 1.04-47.096.569-47.096.569l-209.696-.14-209.696-.14s-34.72.285-47.364-.773c-12.645-1.055-12.792-7.435-12.792-7.435l.008-13.406s-.96 5.444 17.863 6.87c18.824 1.428 251.984.168 251.984.168l239.015.159c0-.001 25.478 1.535 30.848-6.839z"/>
  <path fill="#2D404E" d="M430.97 277.34l-312.101-.208c-10.793-.009-19.546 9.718-19.553 21.718l-.06 105.462 351.186.234.059-105.462c.007-12-8.738-21.737-19.531-21.744z"/>
  <path fill="#1A374D" d="M450.501 299.085c.007-12-8.738-21.738-19.531-21.745l-312.101-.208c-10.793-.009-19.546 9.718-19.553 21.718l-.04 71.897 351.185.234.04-71.896z"/>
  <path fill="#253744" d="M431.697 400.908l-9.039-31.122-147.787-.096-147.786-.099-9.078 31.11s-6.307 10.214 4.524 10.221a42385694.655 42385694.655 0 01304.631.203c10.831.007 4.535-10.217 4.535-10.217z"/>
  <path fill="#E2E5E7" d="M427.448 399.034l-8.796-28.075-143.784-.094-143.784-.097-8.828 28.063s-6.138 9.211 4.402 9.218l148.19.099 148.19.099c10.537.007 4.41-9.213 4.41-9.213z"/>
  <path fill="#DF584C" d="M274.934 266.474h-.009c-3.357-.002-6.514-1.433-8.886-4.031-2.374-2.597-3.679-6.052-3.677-9.722.005-7.574 5.644-13.737 12.572-13.737 3.366.002 6.521 1.435 8.894 4.032 2.372 2.598 3.679 6.051 3.677 9.724-.004 7.574-5.644 13.734-12.571 13.734zm.006-25.134c-5.749 0-10.422 5.108-10.425 11.384-.002 3.041 1.08 5.902 3.047 8.055 1.966 2.152 4.582 3.339 7.366 3.342l.007 1.177v-1.177c5.74 0 10.415-5.106 10.42-11.383.002-3.042-1.08-5.904-3.047-8.056-1.966-2.153-4.584-3.34-7.368-3.342z"/>
  <path fill="#DF584C" d="M274.934 259.355h-.004c-1.618-.002-3.14-.692-4.282-1.943-1.142-1.25-1.773-2.917-1.771-4.685 0-2.109.933-4.11 2.494-5.355l1.267 1.905c-1.009.803-1.609 2.092-1.609 3.452-.002 1.139.403 2.21 1.141 3.017.738.807 1.719 1.251 2.763 1.253h.002c2.151 0 3.904-1.914 3.906-4.266.002-1.359-.599-2.65-1.605-3.453l1.267-1.904c1.561 1.247 2.492 3.248 2.489 5.359-.003 3.65-2.72 6.62-6.058 6.62z"/>
  <path fill="#DF584C" d="M276.012 243.931h-2.152v8.799h2.152v-8.799z"/>
  <path fill="#E2E5E7" d="M218.988 221.065v-.002l-153.733-.1 153.733.102z" opacity=".25"/>
  <path fill="#E2E5E7" d="M22.97 206.219c13.445 1.018 136.238.668 205.314.383 7.501-7.415 17-10.48 27.05-15.467 16.863-8.366 41.773-13.375 51.354-16.304 4.341-1.324 12.303-4.625 19.712-7.84l-51.418-.034-180.574-.122s-28.165.924-41.959 1.858c-13.795.934-22.418 3.125-27.02 8.151-4.598 5.023-20.322 22.504-20.322 22.504v.278c.105 1.125 1.586 5.36 17.863 6.593z" opacity=".19"/>
  <path fill="#253744" d="M5.107 199.627v-.278s-.014.101 0 .278z"/>
  <path fill="#E2E5E7" d="M228.284 206.602c-69.076.285-191.868.635-205.314-.383-16.277-1.233-17.758-5.468-17.863-6.592l-.006 13.127s.145 6.38 12.79 7.435c12.644 1.057 47.364.772 47.364.772l153.733.102c2.526-6.304 5.679-10.884 9.296-14.461z" opacity=".07"/>
  <path fill="#fff" d="M8.353 221.344c-8.024-1.433-8.234-6.5-8.234-6.5L.02 392.674s-1.68 6.778 25.66 8.756V223.04c-6.537-.352-12.784-.886-17.327-1.696zM541.647 221.344c8.022-1.433 8.234-6.5 8.234-6.5l.099 177.83s1.679 6.778-25.661 8.756V223.372c6.538-.352 12.785-1.218 17.328-2.028z"/>
  <path fill="#253744" d="M446.56 370.749H104.064v6.41H446.56v-6.41z" opacity=".19"/>
  <path fill="#1C2E39" d="M450.501 299.085c.007-12-8.738-21.738-19.531-21.745l-312.101-.208c-10.793-.009-19.546 9.718-19.553 21.718l-.04 71.897 9.797.234s0-40.728 2.665-68.205c2.595-8.947 9.482-16.483 13.625-16.483h300.854c4.753 0 11.222 6.609 12.909 16.874 4.068 24.742 1.609 67.582 1.609 67.582l9.726.232.04-71.896z"/>
  <path fill="#586A73" d="M450.443 403.525l.358-104.468c.007-12-9.038-21.711-19.832-21.717 0 0 15.605 8.277 15.598 22.102-.009 13.824-.009 96.064-.009 96.064l3.885 8.019zM99.276 403.291l-.746-104.617c.006-12 9.546-21.551 20.339-21.542 0 0-14.754 4.389-14.765 22.61-.008 18.225-.052 95.83-.052 95.83l-4.776 7.719z"/>
  <path fill="#E2E5E7" d="M368.292 277.299l-249.423-.167c-10.793-.009-19.546 9.718-19.553 21.718l-.04 71.897 168.542.113c33.552-47.509 74.876-77.814 100.474-93.561z" opacity=".09"/>
  <path fill="#FCFEFF" d="M406.597 9.635c0-5.207-3.855-9.43-8.617-9.432L151.402.037c-4.761-.002-8.623 4.216-8.627 9.42l-.087 157.409 263.82.177.089-157.408z"/>
</svg>
